<svg id="Capa_1" enable-background="new 0 0 512 512" height="512" viewBox="0 0 512 512" width="512" xmlns="http://www.w3.org/2000/svg"><g><path d="m512 256c0 43.06-10.63 83.63-29.41 119.24h-.01c-139.35 84.11-313.81 84.11-453.16 0h-.01c-18.78-35.61-29.41-76.18-29.41-119.24 0-7.71.34-15.34 1-22.87.01-.01.01-.02.01-.03.73-8.24 1.85-16.37 3.35-24.36 0-.01 0-.01 0-.02 5.32-28.52 15.38-55.37 29.32-79.72 44.12-77.07 127.16-129 222.32-129s178.2 51.93 222.32 129c21.43 37.43 33.68 80.78 33.68 127z" fill="#fde05d"/><g><path d="m512 256c0 43.06-10.63 83.63-29.41 119.24h-.01c-139.35 84.11-313.81 84.11-453.16 0h-.01c-18.78-35.61-29.41-76.18-29.41-119.24 0-7.71.34-15.34 1-22.87.01-.01.01-.02.01-.03l2.61-.72c11.72-3.25 12.23-19.67.74-23.64 0-.01 0-.01 0-.02 5.32-28.52 15.38-55.37 29.32-79.72 44.12 77.07 127.16 129 222.32 129s178.2-51.93 222.32-129c21.43 37.43 33.68 80.78 33.68 127z" fill="#ffc300"/></g><g><path d="m343.82 348.46c0 48.5-39.32 87.82-87.82 87.82s-87.82-39.32-87.82-87.82 39.32-87.81 87.82-87.81 87.82 39.31 87.82 87.81z" fill="#ff9f00"/><path d="m343.82 348.46c0 48.5-39.32 87.82-87.82 87.82v-175.63c48.5 0 87.82 39.31 87.82 87.81z" fill="#ec781b"/><path d="m482.59 375.24c-10.35 19.62-23.16 37.74-38.04 53.92-17.91 19.49-38.81 36.19-61.95 49.38l-75.59 19.98c-33.57 8.87-68.72 10.06-102.82 3.48l-43.81-8.46c-36.19-14.57-68.27-37.18-94.05-65.6-14.4-15.88-26.84-33.57-36.91-52.7l226.145 11.76z" fill="#fe3345"/><path d="m482.59 375.24c-10.35 19.62-23.16 37.74-38.04 53.92-17.91 19.49-38.81 36.19-61.95 49.38l-75.59 19.98c-16.72 4.41-33.83 6.93-51.01 7.53v-125.572z" fill="#de1263"/><path d="m382.6 478.54c-37.35 21.3-80.57 33.46-126.6 33.46h-.83c-33.51-.11-65.5-6.65-94.79-18.46 1.92-5.05 5.38-9.63 9.68-12.91 8.37-6.38 19.24-8.56 29.76-8.89 3.22-.1 6.51-.06 9.56-1.09s5.88-3.41 6.41-6.58c.53-3.2-1.4-6.4-4.02-8.3-3.2-2.32-8.23-2.16-8.91-6.68-.62-4.15 2.63-8.09 6.28-9.6 4.1-1.7 8.71-1.33 13.15-1.29 4.44.05 9.23-.38 12.61-3.25 2.56-2.18 3.96-5.65 3.62-9-.75-7.49-6.87-9.1-13.24-8.77-3.22.17-6.58.33-9.53-.97-2.94-1.31-5.29-4.59-4.41-7.69.67-2.33 2.89-3.86 5.11-4.83s4.63-1.6 6.57-3.05c3.22-2.43 4.3-7.12 2.91-10.83-1.6-4.27-6.08-5.29-10.17-5.92-3.18-.5-6.5-.88-9.25-2.55-2.36-1.43-3.81-3.78-3.83-6.1h67.47c-.53.91-.92 1.9-1.15 2.94-1.15 5.23 2.05 11.06 7.08 12.9 3.64 1.34 7.69.71 11.55 1.17s8.13 2.8 8.4 6.67c.4 5.74-7.81 8.57-8.95 14.21-.97 4.75 3.66 8.93 8.33 10.22 4.67 1.3 9.71.87 14.32 2.38 4.6 1.51 8.88 6.25 7.26 10.82-2.19 6.16-12.5 6.12-14.53 12.33-1.12 3.46 1.18 7.3 4.34 9.1s6.95 2.04 10.58 2.13c14.96.38 30.31-.84 44.52 3.82 8.05 2.64 15.73 7.86 20.7 14.61z" fill="#ffc300"/><path d="m382.6 478.54c-37.35 21.3-80.57 33.46-126.6 33.46v-136.76h14.15c-.53.91-.92 1.9-1.15 2.94-1.15 5.23 2.05 11.06 7.08 12.9 3.64 1.34 7.69.71 11.55 1.17s8.13 2.8 8.4 6.67c.4 5.74-7.81 8.57-8.95 14.21-.97 4.75 3.66 8.93 8.33 10.22 4.67 1.3 9.71.87 14.32 2.38 4.6 1.51 8.88 6.25 7.26 10.82-2.19 6.16-12.5 6.12-14.53 12.33-1.12 3.46 1.18 7.3 4.34 9.1s6.95 2.04 10.58 2.13c14.96.38 30.31-.84 44.52 3.82 8.05 2.64 15.73 7.86 20.7 14.61z" fill="#ff9f00"/><path d="m482.59 375.24-20.41 5.5c-56.17 15.13-113.6 23.97-171.24 26.5-11.64.52-23.29.78-34.94.78-14.6 0-29.21-.4-43.8-1.22-54.66-3.01-109.08-11.7-162.38-26.06l-20.4-5.5h173.34l35.46 6 31.951-6z" fill="#ff6378"/><path d="m482.59 375.24-20.41 5.5c-56.17 15.13-113.6 23.97-171.24 26.5-11.64.52-23.29.78-34.94.78l13.457-32.78z" fill="#fe3345"/><path d="m290.94 407.24c-11.64.52-23.29.78-34.94.78-14.6 0-29.21-.4-43.8-1.22 1.02-1.4 2.63-2.4 4.25-3.11 2.22-.97 4.63-1.6 6.57-3.05 3.22-2.43 4.3-7.12 2.91-10.83-1.6-4.27-6.08-5.29-10.17-5.92-3.18-.5-6.5-.88-9.25-2.55-2.36-1.43-3.81-3.78-3.83-6.1h67.47c-.53.91-.92 1.9-1.15 2.94-1.15 5.23 2.05 11.06 7.08 12.9 3.64 1.34 7.69.71 11.55 1.17s8.13 2.8 8.4 6.67c.24 3.4-2.54 5.78-5.09 8.32z" fill="#ffeb98"/><path d="m290.94 407.24c-11.64.52-23.29.78-34.94.78v-32.78h14.15c-.53.91-.92 1.9-1.15 2.94-1.15 5.23 2.05 11.06 7.08 12.9 3.64 1.34 7.69.71 11.55 1.17s8.13 2.8 8.4 6.67c.24 3.4-2.54 5.78-5.09 8.32z" fill="#f9e073"/><g><path d="m177 232.71c0 .13-.01.26-.01.39h-175.98c.73-8.24 1.85-16.37 3.35-24.36.85-.07 1.7-.1 2.56-.1 1.56 0 3.08.11 4.58.33 5.01-26.26 28.08-46.11 55.8-46.11 21.34 0 39.93 11.78 49.64 29.18 5.03-2.02 10.51-3.13 16.26-3.13 24.19 0 43.8 19.61 43.8 43.8z" fill="#fff"/><path d="m134.253 233.103c0-.076.006-.151.006-.227 0-13.91-11.277-25.187-25.187-25.187-3.305 0-6.458.643-9.349 1.8-5.585-10.006-16.272-16.776-28.545-16.776-15.938 0-29.203 11.414-32.086 26.512-.86-.123-1.737-.19-2.631-.19-8.665 0-15.925 5.999-17.866 14.069h115.658z" fill="#dff7fd"/></g><g><path d="m497.854 302.508c0-.083.006-.165.006-.248 0-15.221-12.339-27.561-27.561-27.561-3.616 0-7.066.703-10.23 1.97-6.112-10.949-17.806-18.357-31.235-18.357-17.44 0-31.956 12.49-35.11 29.01-.94-.135-1.901-.208-2.879-.208-9.482 0-17.426 6.564-19.55 15.394z" fill="#fff"/><path d="m470.963 302.508c0-.048.003-.095.003-.143 0-8.753-7.095-15.848-15.848-15.848-2.079 0-4.063.404-5.883 1.133-3.514-6.296-10.239-10.556-17.961-10.556-10.028 0-18.375 7.182-20.189 16.682-.541-.077-1.093-.12-1.655-.12-5.452 0-10.02 3.774-11.242 8.852z" fill="#dff7fd"/></g><g><path d="m476.52 125.93h-240.46c4.14-17.2 19.62-29.99 38.08-29.99 1.91 0 3.78.15 5.61.41 6.15-32.18 34.42-56.51 68.39-56.51 26.16 0 48.94 14.43 60.84 35.76 6.16-2.47 12.88-3.84 19.93-3.84 1.71 0 3.4.08 5.06.24 16.48 15.93 30.83 34.07 42.55 53.93z" fill="#fff"/><path d="m430.2 125.927c0-.093.007-.185.007-.278 0-17.049-13.82-30.869-30.869-30.869-4.05 0-7.915.788-11.458 2.206-6.845-12.263-19.943-20.561-34.985-20.561-19.533 0-35.791 13.989-39.325 32.493-1.053-.151-2.129-.233-3.224-.233-10.62 0-19.518 7.352-21.897 17.242z" fill="#dff7fd"/></g><g><path d="m389.59 192.98c-7.63-4.73-17.76-3.78-24.38 2.83-2.69 2.7-4.44 5.97-5.26 9.42h-6.87c-.81-3.45-2.57-6.72-5.26-9.42-6.61-6.61-16.75-7.56-24.37-2.83.79-1.28 1.74-2.48 2.84-3.59 7.72-7.72 20.24-7.72 27.96 0 .85.85 1.61 1.76 2.27 2.71.66-.95 1.41-1.86 2.27-2.71 7.71-7.72 20.23-7.72 27.95 0 1.11 1.11 2.06 2.31 2.85 3.59z" fill="#605f74"/><path d="m389.59 192.98c-7.63-4.73-17.76-3.78-24.38 2.83-2.69 2.7-4.44 5.97-5.26 9.42h-3.43v-13.13c.66-.95 1.41-1.86 2.27-2.71 7.71-7.72 20.23-7.72 27.95 0 1.11 1.11 2.06 2.31 2.85 3.59z" fill="#58586b"/></g><g><path d="m167.329 268.159c-7.63-4.73-17.76-3.78-24.38 2.83-2.69 2.7-4.44 5.97-5.26 9.42h-6.87c-.81-3.45-2.57-6.72-5.26-9.42-6.61-6.61-16.75-7.56-24.37-2.83.79-1.28 1.74-2.48 2.84-3.59 7.72-7.72 20.24-7.72 27.96 0 .85.85 1.61 1.76 2.27 2.71.66-.95 1.41-1.86 2.27-2.71 7.71-7.72 20.23-7.72 27.95 0 1.11 1.11 2.06 2.31 2.85 3.59z" fill="#605f74"/><path d="m167.329 268.159c-7.63-4.73-17.76-3.78-24.38 2.83-2.69 2.7-4.44 5.97-5.26 9.42h-3.43v-13.13c.66-.95 1.41-1.86 2.27-2.71 7.71-7.72 20.23-7.72 27.95 0 1.11 1.11 2.06 2.31 2.85 3.59z" fill="#58586b"/></g><g><path d="m210.07 129.88c-7.63-4.73-17.76-3.78-24.38 2.83-2.69 2.7-4.44 5.97-5.26 9.42h-6.87c-.81-3.45-2.57-6.72-5.26-9.42-6.61-6.61-16.75-7.56-24.37-2.83.79-1.28 1.74-2.48 2.84-3.59 7.72-7.72 20.24-7.72 27.96 0 .85.85 1.61 1.76 2.27 2.71.66-.95 1.41-1.86 2.27-2.71 7.71-7.72 20.23-7.72 27.95 0 1.11 1.11 2.06 2.31 2.85 3.59z" fill="#605f74"/><path d="m210.07 129.88c-7.63-4.73-17.76-3.78-24.38 2.83-2.69 2.7-4.44 5.97-5.26 9.42h-3.43v-13.13c.66-.95 1.41-1.86 2.27-2.71 7.71-7.72 20.23-7.72 27.95 0 1.11 1.11 2.06 2.31 2.85 3.59z" fill="#58586b"/></g><path d="m452.221 218.353c-9.356.434-19.375-.707-23.374-1.048-4.243-.361-9.104-.45-11.525-4.612-1.929-3.316-.949-7.148 2.113-9.387 2.037-1.49 4.553-2.145 7.022-2.669 11.085-2.354 22.597-2.687 33.8-.978 2.626.401 5.303.938 7.561 2.337s4.043 3.835 3.978 6.491c-.178 7.101-9.491 9.398-19.575 9.866z" fill="#fff9bb"/></g></g></svg>