<svg id="Capa_1" enable-background="new 0 0 512 512" height="512" viewBox="0 0 512 512" width="512" xmlns="http://www.w3.org/2000/svg"><g><path d="m512 255.85v.15c0 34.56-6.85 67.51-19.27 97.58-1.28 3.11-2.62 6.19-4.02 9.23-3.05 6.65-6.39 13.15-9.98 19.47-3.79 6.67-7.87 13.17-12.24 19.45-6.52 9.42-13.67 18.38-21.38 26.82-46.66 51.1-113.74 83.22-188.32 83.45h-.79c-53.22 0-102.65-16.24-143.6-44.05-16.68-11.32-31.96-24.56-45.51-39.4-2.54-2.78-5.02-5.62-7.42-8.51-11.36-13.57-21.32-28.34-29.68-44.1-1.2-2.27-2.37-4.55-3.5-6.86-7.41-15-13.39-30.84-17.75-47.34-1.8-6.75-3.32-13.6-4.56-20.55-1.59-8.89-2.71-17.94-3.35-27.13-.34-4.79-.54-9.62-.6-14.49-.02-1.18-.03-2.38-.03-3.57 0-4.41.11-8.79.33-13.14.67-13.21 2.34-26.16 4.94-38.78 5.52-26.79 15.23-52.06 28.41-75.08 44.12-77.07 127.16-129 222.32-129s178.2 51.93 222.32 129c12.98 22.67 22.59 47.52 28.15 73.86.06.3.13.61.19.91 3.34 16.08 5.16 32.69 5.33 49.71.01.79.01 1.58.01 2.37z" fill="#92eaff"/><g><path d="m506.47 202.86-.49.61c-128.88 159.07-371.44 159.37-500.71.61 5.52-26.79 15.23-52.06 28.41-75.08 44.12 77.07 127.16 129 222.32 129s178.2-51.93 222.32-129c12.98 22.67 22.59 47.52 28.15 73.86z" fill="#63dbfa"/></g><g><path d="m454.54 291.7-1.15.72c-120.12 74.63-272.85 71.82-390.14-7.18l-47.217-31.803c-8.687-5.851-11.031-17.629-5.217-26.341 15.2-22.777 30.549-45.456 46.064-68.016 2.06-3 4.13-5.99 6.19-8.98 2.62-3.79 5.25-7.59 7.89-11.37l55.23-46.61c5.96-5.04 13.92-7.03 21.55-5.39 3.62.77 6.98 2.33 9.87 4.5s5.32 4.97 7.07 8.23l36.128 67.305c5.688 10.596 19.047 14.337 29.41 8.235l20.022-11.789c3.88-2.28 8.29-3.49 12.79-3.49h14.62c8.12 0 15.75 3.92 20.49 10.52l18.52 25.81c7.6 10.59 22 13.65 33.25 7.06l10.07-5.9c7.28-4.27 16.22-4.61 23.81-.91l16.63 8.12c.76 1.22 1.52 2.44 2.27 3.66 9.96 15.97 19.88 31.97 29.79 47.97 7.36 11.879 14.71 23.759 22.06 35.649z" fill="#7e7f92"/><path d="m454.54 291.7-1.15.72c-60.43 37.55-129.12 55.49-197.39 53.99v-203.35c10.72-9.43 24.28-13.4 35.78 1.46 6.76 8.71 28.11 49.21 39.1 48.27 8.45-.73 15.01-7.28 22.17-11.83 17.92-11.36 30.19-1.17 39.74 11.9 2.74 3.76 5.27 7.77 7.63 11.56.76 1.22 1.52 2.44 2.27 3.66 9.96 15.97 19.88 31.97 29.79 47.97 7.36 11.88 14.71 23.76 22.06 35.65z" fill="#6e6f83"/><path d="m414 313.62c-112.85 51.97-245.95 42.21-350.75-28.38l-18.82-12.68c32.43-44.19 62.44-84.3 74.98-98.83 7.83-9.08 24.51-11.95 35.34-6.03s30.69 49.47 38.26 58.73c7.56 9.27 20.21 16.21 32.51 13.66 9.23-1.92 16.38-8.67 25.23-11.76 1.83-.64 3.57-1.09 5.25-1.38 11.65-2.03 19.85 4.02 27.45 14.17 7.6 10.14 16.17 19.13 24.21 23.86s18.3 6.14 27.49 3.79c11.3-2.9 21-11.12 32.73-11.19 9.91-.07 19.41 6.62 21.93 15.42z" fill="#6e6f83"/><path d="m414 313.62c-50.09 23.07-104.18 33.98-158 32.79v-119.46c11.65-2.03 19.85 4.02 27.45 14.17 7.6 10.14 16.17 19.13 24.21 23.86s18.3 6.14 27.49 3.79c11.3-2.9 21-11.12 32.73-11.19 9.91-.07 19.41 6.62 21.93 15.42z" fill="#605f74"/><path d="m341.48 345.64v23.44h-239.163c-53.218 0-97.711-40.928-101.615-94.003-.025-.339-.049-.678-.073-1.017-.419-5.96-.629-11.99-.629-18.06 0-17.79 1.81-35.15 5.27-51.92 3.67.57 7.16 2.14 9.87 4.7 8.65 8.15 13.31 23.05 28.21 19.9 4.74-1.01 9.03-3.45 13.47-5.4 4.44-1.96 9.37-3.45 14.1-2.38 10.85 2.43 12.77 15.1 22.83 18.78 14.61 5.35 28.16-15.41 42.28-3.55 4.71 3.96 5.85 10.59 7.8 16.43 2.89 8.64 9.56 14.22 18.35 10.62 8.58-3.52 17.31-8.46 25.27.4 4.68 5.21 6.46 13.48 12.95 16.1 8.8 3.56 18.43-6.35 27.57-3.83 12.16 3.35 15.07 18.07 28.03 13.45 1.41-.51 2.94-1.24 4.62-2.24 4.21-2.52 8.74-5.57 13.57-4.74 5.92 1.01 9.28 7.3 11.02 13.05s3.07 12.2 7.82 15.89c6.33 4.91 15.39 2.57 23.36 3.38 14.7 1.5 26.68 16.31 25.09 31z" fill="#43af3e"/><path d="m341.48 345.64v23.44h-85.48v-79.78c1.41-.51 2.94-1.24 4.62-2.24 4.21-2.52 8.74-5.57 13.57-4.74 5.92 1.01 9.28 7.3 11.02 13.05s3.07 12.2 7.82 15.89c6.33 4.91 15.39 2.57 23.36 3.38 14.7 1.5 26.68 16.31 25.09 31z" fill="#00a23e"/><path d="m405.01 363.2c-92.27 88.11-229.42 110.96-345.54 56.84-11.36-13.57-21.32-28.34-29.68-44.1-1.2-2.27-2.37-4.55-3.5-6.86-14.32-28.99-23.3-61.1-25.66-95.02-.34-4.79-.54-9.62-.6-14.49h75.99c17.1 0 29.96 2.49 42.93 14.52 7.59 7.03 14.46 15.08 23.47 20.18 16.04 9.07 35.74 7.24 54.08 5.43 21.9-2.16 41.18.27 59.5 8.37 7.59 3.35 15.01 7.68 22.38 13.05 14.65 10.67 28.5 22.61 44.49 31.15 19.6 10.47 39.36 10.53 60.81 10.81 7.11.1 14.22.12 21.33.12z" fill="#6cdc2d"/><path d="m405.01 363.2c-42.34 40.43-94.14 67.12-149.01 78.94v-134.07c7.59 3.35 15.01 7.68 22.38 13.05 14.65 10.67 28.5 22.61 44.49 31.15 19.6 10.47 39.36 10.53 60.81 10.81 7.11.1 14.22.12 21.33.12z" fill="#5dbf1d"/><path d="m383.41 382c-91.23 72.32-216.57 88.08-323.94 38.04-11.36-13.57-21.32-28.34-29.68-44.1-1.2-2.27-2.37-4.55-3.5-6.86-10.44-21.14-18.04-43.94-22.31-67.89 47.58.08 59.45.96 87.64 10.63 14.44 4.96 17.33 13.66 31.69 18.08 15.17 4.68 31.43 4.64 47.15 3.99 22.78-.95 46.7-2.76 67.34 6.95 5.44 2.56 11.79 6.75 18.07 11.26.04.03.09.06.13.09 7.22 5.19 14.34 10.75 19.97 14.72 14.6 10.3 31.4 17.87 51.62 16.33 9.98-.76 30.4-1.12 55.82-1.24z" fill="#5dbf1d"/><g><path d="m77.284 423.168-.343-10.739-.834-26.059h-9.636l-.834 26.059-.343 10.739z" fill="#ec771b"/><path d="m77.284 423.168-.343-10.739-.834-26.059h-4.576v36.798z" fill="#c55732"/><path d="m71.531 407.569v-21.199h-5.06l-.679 21.199z" fill="#c55732"/><path d="m76.785 407.569-.678-21.199h-4.576v21.199z" fill="#a44e3e"/><g><path d="m91.192 394.664c-5.444 5.36-12.553 8.039-19.661 8.039-7.107 0-14.215-2.68-19.661-8.039-8.686-8.548-10.423-21.347-5.212-31.596 5.45-10.719 11.142-21.312 15.773-32.409l9.099-21.801 9.083 21.757c4.64 11.113 10.339 21.724 15.794 32.461 5.208 10.247 3.47 23.041-5.215 31.588z" fill="#43af3e"/><path d="m91.192 394.664c-5.444 5.36-12.553 8.039-19.661 8.039-3.372 0-6.744-2.68-9.328-8.039-4.177-8.665-4.967-21.697-2.37-32.014 3.612-14.348 6.813-29.126 9.779-44.099l1.919-9.694 9.083 21.757c4.64 11.113 10.339 21.724 15.794 32.461 5.207 10.248 3.469 23.042-5.216 31.589z" fill="#00a23e"/><path d="m91.192 394.664c-5.444 5.36-12.553 8.039-19.661 8.039v-93.846l9.083 21.757c4.64 11.113 10.339 21.724 15.794 32.461 5.207 10.248 3.469 23.042-5.216 31.589z" fill="#008839"/></g></g><g><path d="m135.261 411.721h-9.519l.51-15.95.627-19.594h7.245l.627 19.594z" fill="#ec771b"/><path d="m135.261 411.721h-4.577v-35.544h3.44l.627 19.594z" fill="#c55732"/><path d="m130.684 393.083v-16.906h-3.805l-.541 16.906z" fill="#c55732"/><path d="m134.665 393.083-.541-16.906h-3.44v16.906z" fill="#a44e3e"/><g><path d="m145.467 382.414c-4.094 4.03-9.438 6.045-14.783 6.045-5.344 0-10.688-2.015-14.783-6.045-6.531-6.428-7.837-16.051-3.919-23.758 4.098-8.059 8.378-16.025 11.86-24.369l6.842-16.393 6.83 16.359c3.489 8.356 7.774 16.335 11.876 24.408 3.914 7.706 2.607 17.326-3.923 23.753z" fill="#43af3e"/><path d="m145.467 382.414c-4.094 4.03-9.438 6.045-14.783 6.045-2.535 0-5.071-2.015-7.014-6.045-3.141-6.515-3.735-16.314-1.782-24.072 2.716-10.788 5.123-21.9 7.353-33.158l1.443-7.289 6.83 16.359c3.489 8.356 7.774 16.335 11.876 24.408 3.914 7.705 2.607 17.325-3.923 23.752z" fill="#00a23e"/><path d="m145.467 382.414c-4.094 4.03-9.438 6.045-14.783 6.045v-70.564l6.83 16.359c3.489 8.356 7.774 16.335 11.876 24.408 3.914 7.705 2.607 17.325-3.923 23.752z" fill="#008839"/></g></g><g><path d="m181.098 371.416h-7.254l.388-12.156.478-14.933h5.522l.478 14.933z" fill="#ec771b"/><path d="m181.098 371.416h-3.488v-27.089h2.622l.478 14.933z" fill="#c55732"/><path d="m177.61 357.148v-12.821h-2.9l-.41 12.821z" fill="#c55732"/><path d="m180.642 357.148-.41-12.821h-2.622v12.821z" fill="#a44e3e"/><g><path d="m188.876 349.08c-3.12 3.071-7.193 4.607-11.266 4.607s-8.146-1.536-11.266-4.607c-4.977-4.899-5.973-12.233-2.986-18.106 3.123-6.142 6.385-12.213 9.039-18.572l5.214-12.493 5.205 12.468c2.659 6.368 5.925 12.449 9.051 18.601 2.982 5.873 1.986 13.205-2.991 18.102z" fill="#43af3e"/><path d="m188.876 349.08c-3.12 3.071-7.193 4.607-11.266 4.607-1.932 0-3.865-1.536-5.345-4.607-2.394-4.965-2.847-12.433-1.358-18.345 2.07-8.222 3.904-16.69 5.604-25.27l1.1-5.555 5.205 12.468c2.659 6.368 5.925 12.449 9.051 18.601 2.982 5.872 1.986 13.204-2.991 18.101z" fill="#00a23e"/><path d="m188.876 349.08c-3.12 3.071-7.193 4.607-11.266 4.607v-53.777l5.205 12.468c2.659 6.368 5.925 12.449 9.051 18.601 2.983 5.872 1.987 13.204-2.99 18.101z" fill="#008839"/></g></g><path d="m383.41 382c-37.84 30-81.55 50.26-127.41 60.14v-89.95c7.22 5.19 14.34 10.75 19.97 14.72 14.6 10.3 31.4 17.87 51.62 16.33 9.98-.76 30.4-1.12 55.82-1.24z" fill="#53af17"/><path d="m512 255.85v.15l-149.79 149.79c-64.84 64.84-159.95 88.88-247.74 62.78-.69-.2-1.38-.41-2.07-.62-1.19-.81-2.38-1.63-3.56-2.47 0 0-.01 0-.01-.01-1.79-1.24-3.55-2.52-5.3-3.83-.11-.07-.21-.14-.31-.22-13.14-9.78-25.31-20.8-36.33-32.87-2.54-2.78-5.02-5.62-7.42-8.51h34.23c29.89 0 42.94-29.37 64.1-45.06 16.03-11.89 36.86-15.15 56.81-15.6 13.78-.3 27.64.56 41.39.14 6.16-.18 12.31-.62 18.41-1.53 29.83-4.44 56.46-24.39 77.81-46.2 24.8-25.33 43.27-51.55 64.81-77.67 26.09-31.64 59.64-45.61 89.63-30.35 3.34 16.08 5.16 32.69 5.33 49.71.01.79.01 1.58.01 2.37z" fill="#b6e337"/><path d="m512 255.85v.15l-149.79 149.79c-30.13 30.13-66.79 51.45-106.21 63.01v-109.28c6.16-.18 12.31-.62 18.41-1.53 29.83-4.44 56.46-24.39 77.81-46.2 24.8-25.33 43.27-51.55 64.81-77.67 26.09-31.64 59.64-45.61 89.63-30.35 3.34 16.08 5.16 32.69 5.33 49.71.01.79.01 1.58.01 2.37z" fill="#6cdc2d"/><g><path d="m214.629 423.197h-10.088l.54-16.905.664-20.766h7.679l.665 20.766z" fill="#ec771b"/><path d="m214.629 423.197h-4.851v-37.671h3.646l.665 20.766z" fill="#c55732"/><path d="m209.778 402.916v-17.39h-4.033l-.556 17.39z" fill="#c55732"/><path d="m213.981 402.916-.557-17.39h-3.646v17.39z" fill="#a44e3e"/><g><path d="m225.445 392.135c-4.339 4.271-10.003 6.407-15.667 6.407-5.663 0-11.328-2.135-15.668-6.407-7.016-6.905-8.343-17.29-3.98-25.512 6.067-11.434 11.444-23.21 16.424-35.142l3.224-7.725 3.225 7.725c4.979 11.932 10.357 23.708 16.424 35.142 4.362 8.222 3.035 18.607-3.982 25.512z" fill="#43af3e"/><path d="m225.445 392.135c-4.339 4.271-10.003 6.407-15.667 6.407-2.687 0-5.374-2.135-7.434-6.407-3.329-6.905-3.959-17.29-1.888-25.512 2.879-11.434 5.429-23.21 7.793-35.142l1.529-7.725 3.225 7.725c4.979 11.932 10.357 23.708 16.424 35.142 4.362 8.222 3.035 18.607-3.982 25.512z" fill="#00a23e"/><path d="m225.445 392.135c-4.339 4.271-10.003 6.407-15.667 6.407v-74.786l3.225 7.725c4.979 11.932 10.357 23.708 16.424 35.142 4.362 8.222 3.035 18.607-3.982 25.512z" fill="#008839"/></g></g><g><path d="m160.866 443.6h-7.281l.39-12.2.479-14.988h5.543l.479 14.988z" fill="#ec771b"/><path d="m160.866 443.6h-3.501v-27.188h2.632l.479 14.988z" fill="#c55732"/><path d="m157.365 429.211v-12.799h-2.911l-.409 12.799z" fill="#c55732"/><path d="m160.406 429.211-.409-12.799h-2.632v12.799z" fill="#a44e3e"/><g><path d="m168.672 421.182c-3.131 3.082-7.219 4.624-11.307 4.624-4.087 0-8.175-1.541-11.307-4.624-4.995-4.916-5.994-12.277-2.997-18.172 3.135-6.164 6.408-12.257 9.072-18.639l5.233-12.538 5.224 12.513c2.668 6.392 5.946 12.494 9.084 18.669 2.993 5.894 1.993 13.252-3.002 18.167z" fill="#43af3e"/><path d="m168.672 421.182c-3.131 3.082-7.219 4.624-11.307 4.624-1.939 0-3.879-1.541-5.365-4.624-2.402-4.983-2.857-12.479-1.363-18.412 2.077-8.252 3.919-16.751 5.624-25.362l1.104-5.575 5.224 12.513c2.668 6.392 5.946 12.494 9.084 18.669 2.994 5.894 1.994 13.252-3.001 18.167z" fill="#00a23e"/><path d="m168.672 421.182c-3.131 3.082-7.219 4.624-11.307 4.624v-53.973l5.224 12.513c2.668 6.392 5.946 12.494 9.084 18.669 2.994 5.894 1.994 13.252-3.001 18.167z" fill="#008839"/></g></g><g><path d="m113.55 468.73c-3.35-2.24-6.64-4.56-9.87-6.96l.04-1.18.71-22.05h8.15l.71 22.05z" fill="#ec771b"/><path d="m113.55 468.73c-1.63-1.09-3.24-2.2-4.84-3.32v-26.87h3.87l.71 22.05z" fill="#c55732"/><path d="m108.71 456.298v-17.758h-4.283l-.568 17.758z" fill="#c55732"/><path d="m113.15 456.298-.568-17.758h-3.872v17.758z" fill="#a44e3e"/><g><path d="m125.348 445.558c-4.607 4.536-10.623 6.803-16.638 6.803-6.014 0-12.03-2.268-16.638-6.803-7.35-7.234-8.82-18.065-4.41-26.738 4.612-9.07 9.429-18.035 13.348-27.426l7.7-18.449 7.687 18.412c3.926 9.405 8.75 18.384 13.366 27.47 4.405 8.672 2.934 19.499-4.415 26.731z" fill="#43af3e"/><path d="m125.348 445.558c-4.607 4.536-10.623 6.803-16.638 6.803-2.854 0-5.707-2.268-7.894-6.803-3.535-7.333-4.204-18.361-2.006-27.092 3.057-12.142 5.766-24.648 8.276-37.319l1.624-8.203 7.687 18.412c3.926 9.405 8.75 18.384 13.366 27.47 4.405 8.673 2.934 19.5-4.415 26.732z" fill="#00a23e"/><path d="m125.348 445.558c-4.607 4.536-10.623 6.803-16.638 6.803v-79.417l7.687 18.412c3.926 9.405 8.75 18.384 13.366 27.47 4.405 8.673 2.934 19.5-4.415 26.732z" fill="#008839"/></g></g><path d="m512 255.85v.15c0 38.13-8.34 74.3-23.29 106.81-11.11 24.18-25.88 46.33-43.6 65.74-46.66 51.1-113.74 83.22-188.32 83.45h-.79c-53.22 0-102.65-16.24-143.6-44.05 9.67-3.75 18.72-9.21 27.2-15.62 16.34-12.34 25.46-26.73 46.44-32.99 23.47-7.01 46.25-5.14 69.96-4.28.28.01.55.02.83.03 23.19.82 46.62-5.25 66.39-17.42 40.07-24.66 61.41-70.03 90.28-107.19 16.93-21.8 39.83-42.51 67.43-43.11 9.48-.21 20.77 3.06 31.07 8.48z" fill="#6cdc2d"/><path d="m400.443 204.456c1.346 2.16 1.144 4.942-.489 6.893-1.448 1.73-2.896 3.46-4.344 5.19-1.65 1.97-3.33 3.97-5.52 5.31-2.18 1.35-4.99 1.94-7.34.9-2.74-1.21-4.14-4.22-6.31-6.3-5.72-5.51-13.14-3.23-18.72 1.34-4.01 3.29-7.18 7.49-11.06 10.93-12.03 10.67-22.31 4.44-30.28-6.96-7.28-10.43-14.56-20.85-21.85-31.27-3.91-5.61-9.73-11.94-16.29-10.02-6.17 1.81-9.53 10.43-15.94 9.98-2.48-.18-4.56-1.76-6.3-3.61-.4-.42-.78-.86-1.14-1.3-1.96-2.35-3.86-4.96-6.69-6.13-8.56-3.53-21.53 18.52-28.07 22.89-4.43 2.96-10.95 4.32-14.88-1.61-16.42-24.75-40.18-87.19-49.72-87.45s-14.78 10.72-20.72 16.55c-9.17 9.01-15.43-2.14-24.39-3.94-6.42-1.29-12.33 3.9-15.89 9.39s-6.22 11.92-11.61 15.64c-.053.036-.105.072-.158.107-7.881 5.269-17.193-4.477-11.772-12.254 8.251-11.836 16.581-23.614 25.06-35.284 11.73-16.13 26.33-42.92 50.26-37.44 9.39 2.15 17.32 8.66 23.06 16.4 5.74 7.73 9.57 16.68 13.35 25.54 5.24 12.28 10.47 24.56 15.71 36.83 4.27 10.02 10.06 21.33 20.73 23.48 11.51 2.33 21.71-7.35 28.9-16.63 2.39-3.08 5.07-6.02 7.97-8.57 10.72-9.43 24.28-13.4 35.78 1.46 6.76 8.71 28.11 49.21 39.1 48.27 8.45-.73 15.01-7.28 22.17-11.83 17.92-11.36 30.19-1.17 39.74 11.9 2.74 3.76 5.27 7.77 7.63 11.56.008.014.015.026.023.038z" fill="#fff"/><path d="m512 255.85v.15c0 38.13-8.34 74.3-23.29 106.81-11.11 24.18-25.88 46.33-43.6 65.74-46.66 51.1-113.74 83.22-188.32 83.45h-.79v-96.94c.28.01.55.02.83.03 23.19.82 46.62-5.25 66.39-17.42 40.07-24.66 61.41-70.03 90.28-107.19 16.93-21.8 39.83-42.51 67.43-43.11 9.48-.21 20.77 3.06 31.07 8.48z" fill="#5dbf1d"/><path d="m400.443 204.456c1.346 2.16 1.144 4.942-.489 6.893-1.448 1.73-2.896 3.46-4.344 5.19-1.65 1.97-3.33 3.97-5.52 5.31-2.18 1.35-4.99 1.94-7.34.9-2.74-1.21-4.14-4.22-6.31-6.3-5.72-5.51-13.14-3.23-18.72 1.34-4.01 3.29-7.18 7.49-11.06 10.93-12.03 10.67-22.31 4.44-30.28-6.96-7.28-10.43-14.56-20.85-21.85-31.27-3.91-5.61-9.73-11.94-16.29-10.02-6.17 1.81-9.53 10.43-15.94 9.98-2.48-.18-4.56-1.76-6.3-3.61v-43.78c10.72-9.43 24.28-13.4 35.78 1.46 6.76 8.71 28.11 49.21 39.1 48.27 8.45-.73 15.01-7.28 22.17-11.83 17.92-11.36 30.19-1.17 39.74 11.9 2.74 3.76 5.27 7.77 7.63 11.56.008.013.015.025.023.037z" fill="#d1f6ff"/><g><path d="m289.742 60.922c0-.059.004-.117.004-.175 0-10.755-8.719-19.474-19.474-19.474-2.555 0-4.993.497-7.228 1.392-4.318-7.736-12.581-12.971-22.071-12.971-12.323 0-22.58 8.825-24.809 20.499-.665-.095-1.343-.147-2.034-.147-6.7 0-12.313 4.638-13.814 10.878h89.426z" fill="#fff"/><path d="m270.741 60.922c0-.034.003-.067.003-.101 0-6.185-5.014-11.198-11.198-11.198-1.469 0-2.871.286-4.157.8-2.483-4.449-7.235-7.459-12.691-7.459-7.086 0-12.984 5.075-14.266 11.787-.382-.055-.772-.085-1.169-.085-3.853 0-7.081 2.667-7.943 6.255h51.421z" fill="#dff7fd"/></g><g><path d="m330.707 130.724c0-.045-.003-.089-.003-.133 0-8.169 6.622-14.791 14.791-14.791 1.941 0 3.792.378 5.49 1.057 3.28-5.876 9.556-9.852 16.763-9.852 9.36 0 17.15 6.703 18.843 15.569.505-.072 1.02-.112 1.545-.112 5.089 0 9.352 3.523 10.492 8.262z" fill="#fff"/><path d="m345.139 130.724c0-.026-.002-.051-.002-.077 0-4.697 3.808-8.505 8.505-8.505 1.116 0 2.181.217 3.157.608 1.886-3.379 5.495-5.665 9.639-5.665 5.382 0 9.861 3.854 10.835 8.953.29-.042.587-.064.888-.064 2.926 0 5.378 2.026 6.033 4.751h-39.055z" fill="#dff7fd"/></g></g><g fill="#53af17"><path d="m323.896 444.102c-.967 3.721-4.767 5.953-8.488 4.985-3.721-.967-5.953-4.767-4.985-8.488.967-3.72 4.767-5.953 8.488-4.985 3.72.967 5.952 4.768 4.985 8.488z"/><circle cx="359.001" cy="456.887" r="6.961"/><path d="m469.161 355.849c0 3.844-3.116 6.961-6.961 6.961-3.844 0-6.961-3.116-6.961-6.961 0-3.844 3.116-6.961 6.961-6.961 3.844.001 6.961 3.117 6.961 6.961z"/><circle cx="444.618" cy="302.94" r="6.961"/><circle cx="405.483" cy="435.39" r="6.961"/><circle cx="277.198" cy="489.754" r="10.045"/><ellipse cx="492.116" cy="280.266" rx="10.045" ry="10.045" transform="matrix(.161 -.987 .987 .161 136.416 720.953)"/><ellipse cx="388.477" cy="381.543" rx="10.045" ry="10.045" transform="matrix(.161 -.987 .987 .161 -50.531 703.664)"/><path d="m168.706 470.808c0 3.844-3.116 6.961-6.961 6.961-3.844 0-6.961-3.116-6.961-6.961 0-3.844 3.116-6.961 6.961-6.961s6.961 3.117 6.961 6.961z"/><circle cx="200.225" cy="447.474" r="10.045"/><path d="m232.923 489.754c0 3.281-2.66 5.941-5.941 5.941s-5.941-2.66-5.941-5.941 2.66-5.941 5.941-5.941 5.941 2.659 5.941 5.941z"/><path d="m246.66 437.429c0 3.281-2.66 5.941-5.941 5.941s-5.941-2.66-5.941-5.941 2.66-5.941 5.941-5.941 5.941 2.66 5.941 5.941z"/></g></g></svg>